<svg id="Capa_1" enable-background="new 0 0 512 512" height="512" viewBox="0 0 512 512" width="512" xmlns="http://www.w3.org/2000/svg"><g fill="#756e78"><path d="m256 132.605c-4.268 0-7.726-3.459-7.726-7.726v-72.742c0-4.267 3.459-7.726 7.726-7.726s7.726 3.459 7.726 7.726v72.741c0 4.267-3.458 7.727-7.726 7.727z"/><path d="m348.717 171.009c-1.977 0-3.955-.755-5.464-2.263-3.017-3.017-3.017-7.909 0-10.927l30.217-30.218c3.018-3.017 7.909-3.017 10.928 0 3.017 3.017 3.017 7.909 0 10.927l-30.217 30.218c-1.509 1.509-3.487 2.263-5.464 2.263z"/><path d="m163.283 171.009c-1.978 0-3.955-.754-5.464-2.263l-30.217-30.218c-3.017-3.017-3.017-7.909 0-10.927 3.019-3.018 7.91-3.018 10.928 0l30.217 30.218c3.017 3.017 3.017 7.909 0 10.927-1.51 1.509-3.487 2.263-5.464 2.263z"/><path d="m378.076 385.803c-1.977 0-3.955-.755-5.464-2.263l-29.359-29.359c-3.017-3.017-3.017-7.909 0-10.927 3.018-3.017 7.909-3.017 10.928 0l29.359 29.359c3.017 3.017 3.017 7.909 0 10.927-1.509 1.508-3.487 2.263-5.464 2.263z"/><path d="m134.696 385.03c-1.977 0-3.955-.755-5.464-2.263-3.017-3.017-3.017-7.909 0-10.927l28.587-28.587c3.018-3.017 7.909-3.017 10.928 0 3.017 3.017 3.017 7.909 0 10.927l-28.587 28.587c-1.509 1.509-3.487 2.263-5.464 2.263z"/><path d="m449.561 263.726h-62.44c-4.268 0-7.726-3.459-7.726-7.726s3.459-7.726 7.726-7.726h62.44c4.268 0 7.726 3.459 7.726 7.726.001 4.267-3.458 7.726-7.726 7.726z"/><path d="m256 467.589c-4.268 0-7.726-3.459-7.726-7.726v-72.741c0-4.267 3.459-7.726 7.726-7.726s7.726 3.459 7.726 7.726v72.741c0 4.267-3.458 7.726-7.726 7.726z"/><path d="m124.878 263.726h-62.44c-4.268 0-7.726-3.459-7.726-7.726s3.459-7.726 7.726-7.726h62.44c4.268 0 7.726 3.459 7.726 7.726.001 4.267-3.458 7.726-7.726 7.726z"/></g><path d="m256 220.63v127.633c-2.349 0-4.718-.412-6.964-1.226-.052-.01-.113-.031-.165-.051-.031-.021-.072-.031-.103-.041l-70.979-26.61c-.082-.031-.165-.062-.247-.103-7.902-3.08-13.114-10.693-13.114-19.192v-90.079c0-4.687 1.587-9.117 4.347-12.651z" fill="#b4acb7"/><path d="m347.573 210.961v90.079c0 8.499-5.213 16.112-13.114 19.192-.082.041-.165.072-.247.103l-70.979 26.61c-.031.01-.072.021-.103.041-2.297.845-4.718 1.277-7.129 1.277v-127.633l87.225-22.321c2.76 3.534 4.347 7.964 4.347 12.652z" fill="#a59da5"/><path d="m343.225 198.31-83.607 31.361c-2.333.875-4.903.875-7.236 0l-83.607-31.361c2.225-2.874 5.223-5.161 8.767-6.542.082-.041.165-.072.247-.103l70.979-26.61c.031-.01.072-.021.103-.041 4.605-1.7 9.653-1.7 14.258 0 .031.021.072.031.103.041l70.979 26.61c.082.031.165.062.247.103 3.545 1.381 6.542 3.668 8.767 6.542z" fill="#c3bec6"/><circle cx="256" cy="31.22" fill="#fcee56" r="31.22"/><circle cx="107.358" cy="404.642" fill="#62b4fd" r="45.789"/><path d="m139.736 372.264c-2.568-2.568-5.371-4.755-8.333-6.586 10.914 17.654 8.727 41.109-6.586 56.422s-38.769 17.5-56.423 6.586c1.831 2.961 4.018 5.764 6.586 8.333 17.882 17.882 46.873 17.882 64.755 0 17.882-17.881 17.882-46.873.001-64.755z" fill="#27a2fb"/><circle cx="404.642" cy="404.642" fill="#62b4fd" r="45.789"/><path d="m437.019 372.264c-2.568-2.568-5.371-4.755-8.333-6.586 10.914 17.654 8.727 41.109-6.586 56.422s-38.769 17.5-56.422 6.586c1.831 2.961 4.018 5.764 6.586 8.333 17.882 17.882 46.873 17.882 64.755 0 17.882-17.881 17.882-46.873 0-64.755z" fill="#27a2fb"/><circle cx="107.358" cy="107.358" fill="#62b4fd" r="45.789"/><path d="m139.736 74.981c-2.568-2.568-5.371-4.755-8.333-6.586 10.914 17.654 8.727 41.109-6.586 56.422s-38.769 17.5-56.423 6.586c1.831 2.961 4.018 5.764 6.586 8.333 17.882 17.882 46.873 17.882 64.755 0s17.882-46.874.001-64.755z" fill="#27a2fb"/><circle cx="404.642" cy="107.358" fill="#62b4fd" r="45.789"/><path d="m437.019 74.981c-2.568-2.568-5.371-4.755-8.333-6.586 10.914 17.654 8.727 41.109-6.586 56.422s-38.769 17.5-56.422 6.586c1.831 2.961 4.018 5.764 6.586 8.333 17.882 17.882 46.873 17.882 64.755 0s17.882-46.874 0-64.755z" fill="#27a2fb"/><circle cx="256" cy="480.78" fill="#fcee56" r="31.22"/><circle cx="480.78" cy="256" fill="#fcee56" r="31.22"/><circle cx="31.22" cy="256" fill="#fcee56" r="31.22"/></svg>