<?xml version="1.0" encoding="iso-8859-1"?>
<!-- Generator: Adobe Illustrator 19.0.0, SVG Export Plug-In . SVG Version: 6.00 Build 0)  -->
<svg version="1.1" id="Capa_1" xmlns="http://www.w3.org/2000/svg" xmlns:xlink="http://www.w3.org/1999/xlink" x="0px" y="0px"
	 viewBox="0 0 512 512" style="enable-background:new 0 0 512 512;" xml:space="preserve">
<path style="fill:#3C3A41;" d="M330.7,496.099H181.3c0.3-1.199,0-2.699,0.601-3.898l30-91c1.8-6,7.5-10.201,14.099-10.201h60
	c6.599,0,12.299,4.2,14.099,10.201l30,91C330.7,493.4,330.399,494.9,330.7,496.099z"/>
<path style="fill:#2B292C;" d="M330.7,496.099H256V391h30c6.599,0,12.299,4.2,14.099,10.201l30,91
	C330.7,493.4,330.399,494.9,330.7,496.099z"/>
<path style="fill:#E5E5E5;" d="M497,45v301H15V45c0-16.5,13.5-30,30-30h422C483.5,15,497,28.5,497,45z"/>
<path style="fill:#3C3A41;" d="M467,0H45C20.099,0,0,20.099,0,45v286l36.599,30h439.1L512,331V45C512,20.099,491.901,0,467,0z
	 M482,331H30V45c0-8.401,6.599-15,15-15h422c8.401,0,15,6.599,15,15V331z"/>
<path style="fill:#D9D9D9;" d="M497,45v301H256V15h211C483.5,15,497,28.5,497,45z"/>
<path style="fill:#2B292C;" d="M512,45v286l-36.301,30H256v-30h226V45c0-8.401-6.599-15-15-15H256V0h211
	C491.901,0,512,20.099,512,45z"/>
<path style="fill:#57555C;" d="M0,331v45c0,24.901,20.099,45,45,45h422c24.901,0,45-20.099,45-45v-45H0z"/>
<path style="fill:#3C3A41;" d="M512,331v45c0,24.901-20.099,45-45,45H256v-90H512z"/>
<path style="fill:#57555C;" d="M391,497c0,8.401-6.599,15-15,15H136c-8.401,0-15-6.599-15-15s6.599-15,15-15h240
	C384.401,482,391,488.599,391,497z"/>
<path style="fill:#3C3A41;" d="M391,497c0,8.401-6.599,15-15,15H256v-30h120C384.401,482,391,488.599,391,497z"/>
<path style="fill:#4DBAEE;" d="M358.299,126.899l-7.2,26.7L256,217.2l-0.601,0.3L168.4,161.7l-14.7-34.801
	c1.5-1.5,2.399-3.3,3.898-4.499l90-60C250,60.601,253.001,60,256,60s6,0.601,8.401,2.401l90,60
	C355.901,123.6,356.8,125.4,358.299,126.899z"/>
<g>
	<path style="fill:#1BA9EF;" d="M351.099,153.6L256,217.2V60c2.999,0,6,0.601,8.401,2.401l90,60c1.5,1.199,2.399,2.999,3.898,4.499
		L351.099,153.6z"/>
	<path style="fill:#1BA9EF;" d="M361,135v90c0,5.099-2.401,9.6-6.599,12.599l-90,60H263.5c0,0.3-0.3,0.601-0.3,0.601
		c-2.401,1.199-4.799,1.8-7.2,1.8s-4.799-0.601-7.2-1.8c0,0-0.3-0.3-0.3-0.601h-0.901l-90-60C153.401,234.6,151,230.099,151,225v-90
		c0-2.701,0.901-6.301,2.701-8.101L256,195l102.299-68.101C360.099,128.699,361,132.299,361,135z"/>
</g>
<path style="fill:#1689FC;" d="M263.2,298.2c-2.401,1.199-4.799,1.8-7.2,1.8V195l102.299-68.101c1.8,1.8,2.701,5.4,2.701,8.101v90
	c0,5.099-2.401,9.6-6.599,12.599l-90,60H263.5C263.5,297.9,263.2,298.2,263.2,298.2z"/>
<g>
</g>
<g>
</g>
<g>
</g>
<g>
</g>
<g>
</g>
<g>
</g>
<g>
</g>
<g>
</g>
<g>
</g>
<g>
</g>
<g>
</g>
<g>
</g>
<g>
</g>
<g>
</g>
<g>
</g>
</svg>
